# xmcd
# 
# Track frame offsets:
#     150
#     13605
#     23068
#     51283
#     67912
#     96894
#     115959
#     132312
#     157982
#     174179
#     193539
#     216791
# 
# Disc length: 3151
# 
# Revision: 4
# Processed by: cddbd v1.5.2PL0 Copyright (c) Steve Scherf et al.
# Submitted via: fre:ac v1.0.31
# 
DISCID=980c4d0c
DTITLE=Boz Scaggs - A Fool to Care
DYEAR=2015
DGENRE=Rock/Pop
TTITLE0=Rich Woman
TTITLE1=I'm a Fool to Care
TTITLE2=Hell to Pay
TTITLE3=Small Town Talk
TTITLE4=Last Tango on 16th Street
TTITLE5=There's Storm a' Comin'
TTITLE6=I'm So Proud
TTITLE7=I Want to See You
TTITLE8=High Blood Pressure
TTITLE9=Full of Fire
TTITLE10=Love Don't Love Nobody
TTITLE11=Whispering Pines
EXTD=
EXTT0=
EXTT1=
EXTT2=
EXTT3=
EXTT4=
EXTT5=
EXTT6=
EXTT7=
EXTT8=
EXTT9=
EXTT10=
EXTT11=
PLAYORDER=
